<?xml version="1.0" encoding="iso-8859-1"?>
<!-- Generator: Adobe Illustrator 17.1.0, SVG Export Plug-In . SVG Version: 6.00 Build 0)  -->
<!DOCTYPE svg PUBLIC "-//W3C//DTD SVG 1.1//EN" "http://www.w3.org/Graphics/SVG/1.1/DTD/svg11.dtd">
<svg version="1.1" id="Capa_1" xmlns="http://www.w3.org/2000/svg" xmlns:xlink="http://www.w3.org/1999/xlink" x="0px" y="0px"
	 viewBox="0 0 512 512" style="enable-background:new 0 0 512 512;" xml:space="preserve">
<g>
	<path d="M504,468h-16V207.695c9.555-5.542,16-15.877,16-27.695v-80c0-13.213-10.75-23.963-23.963-23.963H317.985
		C310.875,48.446,285.78,28,256,28s-54.875,20.446-61.985,48.037H31.963C18.75,76.037,8,86.787,8,100v80
		c0,11.818,6.445,22.153,16,27.695V468H8c-4.418,0-8,3.582-8,8s3.582,8,8,8h496c4.418,0,8-3.582,8-8S508.418,468,504,468z M472,196
		c-8.822,0-16-7.178-16-16h32C488,188.822,480.822,196,472,196z M24,180h32c0,8.822-7.178,16-16,16S24,188.822,24,180z M296,141.907
		V164h-32v-8.518C276.014,153.976,286.999,149.135,296,141.907z M408,164V92.037h32V164H408z M392,164h-32V92.037h32V164z M344,164
		h-32v-40c0-0.323-0.025-0.64-0.062-0.953c5.122-9.192,8.055-19.763,8.061-31.01H344V164z M248,164h-32v-22.093
		c9.001,7.228,19.986,12.069,32,13.575V164z M200.062,123.047C200.025,123.36,200,123.677,200,124v40h-32V92.037h24.001
		C192.007,103.284,194.94,113.856,200.062,123.047z M152,164h-32V92.037h32V164z M104,164H72V92.037h32V164z M104,180
		c0,8.822-7.178,16-16,16s-16-7.178-16-16H104z M152,180c0,8.822-7.178,16-16,16s-16-7.178-16-16H152z M200,180
		c0,8.822-7.178,16-16,16s-16-7.178-16-16H200z M248,180c0,8.822-7.178,16-16,16s-16-7.178-16-16H248z M296,180
		c0,8.822-7.178,16-16,16s-16-7.178-16-16H296z M344,180c0,8.822-7.178,16-16,16s-16-7.178-16-16H344z M392,180
		c0,8.822-7.178,16-16,16s-16-7.178-16-16H392z M440,180c0,8.822-7.178,16-16,16s-16-7.178-16-16H440z M488,100v64h-32V92.037
		h24.037C484.428,92.037,488,95.609,488,100z M256,44c26.467,0,48,21.533,48,48s-21.533,48-48,48s-48-21.533-48-48
		S229.533,44,256,44z M31.963,92.037H56V164H24v-64C24,95.609,27.572,92.037,31.963,92.037z M40,212c9.551,0,18.132-4.211,24-10.868
		C69.868,207.789,78.449,212,88,212s18.132-4.211,24-10.868c5.868,6.657,14.449,10.868,24,10.868s18.132-4.211,24-10.868
		c5.868,6.657,14.449,10.868,24,10.868s18.132-4.211,24-10.868c5.868,6.657,14.449,10.868,24,10.868s18.132-4.211,24-10.868
		c5.868,6.657,14.449,10.868,24,10.868s18.132-4.211,24-10.868c5.868,6.657,14.449,10.868,24,10.868s18.132-4.211,24-10.868
		c5.868,6.657,14.449,10.868,24,10.868s18.132-4.211,24-10.868c5.868,6.657,14.449,10.868,24,10.868s18.132-4.211,24-10.868
		c5.868,6.657,14.449,10.868,24,10.868v256h-16V244.014c0-8.83-7.184-16.014-16.014-16.014H336c-8.83,0-16.014,7.184-16.014,16.014
		V468H40V212z M440,468H335.987L336,244l104,0.014V468z"/>
	<path d="M288,228H72c-8.822,0-16,7.178-16,16v192c0,8.822,7.178,16,16,16h216c8.822,0,16-7.178,16-16V244
		C304,235.178,296.822,228,288,228z M288,436H72V244h216V436z"/>
	<path d="M352,388.001c4.418,0,8-3.582,8-8v-24c0-4.418-3.582-8-8-8s-8,3.582-8,8v24C344,384.419,347.582,388.001,352,388.001z"/>
	<path d="M217.753,88.998l32,40C251.271,130.896,253.57,132,256,132s4.729-1.104,6.247-3.002l32-40
		c2.546-3.183,2.292-7.772-0.59-10.654l-16-16c-1.5-1.5-3.535-2.343-5.657-2.343h-32c-2.122,0-4.157,0.843-5.657,2.343l-16,16
		C215.461,81.226,215.207,85.814,217.753,88.998z M243.314,76h25.372l8.594,8.594l-21.28,26.6l-21.28-26.6L243.314,76z"/>
	<path d="M88.013,324.251c0.005,0.164,0.01,0.327,0.025,0.49c0.011,0.12,0.03,0.236,0.046,0.354
		c0.019,0.138,0.037,0.276,0.063,0.413c0.024,0.128,0.056,0.253,0.086,0.379c0.03,0.125,0.06,0.25,0.096,0.373
		c0.037,0.126,0.081,0.25,0.124,0.374c0.042,0.121,0.084,0.241,0.132,0.361c0.048,0.12,0.102,0.236,0.156,0.353
		c0.055,0.118,0.109,0.237,0.17,0.353c0.06,0.114,0.125,0.225,0.19,0.336c0.065,0.112,0.13,0.223,0.202,0.332
		c0.074,0.113,0.153,0.221,0.232,0.33c0.073,0.1,0.145,0.201,0.223,0.298c0.091,0.114,0.188,0.222,0.286,0.331
		c0.058,0.065,0.109,0.133,0.17,0.197l84,88c0.003,0.003,0.006,0.006,0.009,0.009c0.031,0.032,0.064,0.061,0.095,0.093
		c0.053,0.054,0.11,0.103,0.164,0.155c0.241,0.231,0.497,0.449,0.769,0.649c0.035,0.026,0.067,0.054,0.102,0.079
		c0.031,0.022,0.061,0.046,0.093,0.068c0.015,0.01,0.03,0.018,0.045,0.028c0.203,0.139,0.413,0.271,0.631,0.392
		c0.058,0.032,0.119,0.058,0.178,0.088c0.067,0.035,0.135,0.067,0.202,0.1c0.112,0.054,0.22,0.113,0.335,0.162
		c0.129,0.056,0.263,0.099,0.395,0.148c0.076,0.028,0.15,0.059,0.227,0.085c0.031,0.01,0.061,0.024,0.092,0.034
		c0.009,0.003,0.018,0.007,0.027,0.01c0.004,0.001,0.009,0.002,0.013,0.003c0.332,0.105,0.673,0.181,1.017,0.242
		c0.054,0.01,0.105,0.026,0.159,0.034c0.06,0.009,0.12,0.01,0.18,0.018c0.315,0.042,0.632,0.069,0.953,0.073
		c0.035,0,0.07,0.008,0.105,0.008c0.037,0,0.073-0.008,0.11-0.009c0.319-0.005,0.636-0.032,0.949-0.074
		c0.054-0.007,0.107-0.006,0.16-0.014c0.063-0.01,0.124-0.028,0.187-0.039c0.339-0.061,0.675-0.137,1.002-0.24
		c0.005-0.001,0.009-0.002,0.014-0.003s0.009-0.004,0.014-0.005c0.051-0.016,0.1-0.039,0.151-0.057
		c0.067-0.023,0.132-0.05,0.198-0.074c0.125-0.047,0.252-0.088,0.375-0.14c0.108-0.047,0.21-0.102,0.316-0.153
		c0.081-0.039,0.162-0.078,0.242-0.12c0.001-0.001,0.003-0.001,0.004-0.002c0.05-0.026,0.102-0.047,0.151-0.075
		c0.266-0.147,0.52-0.309,0.764-0.482c0.047-0.033,0.09-0.071,0.136-0.106c0.256-0.191,0.499-0.397,0.728-0.615
		c0.063-0.06,0.127-0.116,0.189-0.178c0.032-0.032,0.065-0.063,0.096-0.095l83.998-87.998c0.061-0.063,0.112-0.132,0.17-0.197
		c0.097-0.109,0.194-0.217,0.286-0.331c0.078-0.097,0.15-0.198,0.223-0.298c0.079-0.109,0.158-0.217,0.232-0.33
		c0.071-0.109,0.136-0.221,0.202-0.332c0.065-0.111,0.13-0.222,0.19-0.336c0.061-0.116,0.115-0.234,0.17-0.353
		c0.054-0.117,0.108-0.233,0.156-0.353c0.048-0.119,0.09-0.24,0.132-0.361c0.043-0.124,0.087-0.247,0.124-0.374
		c0.036-0.124,0.066-0.248,0.096-0.373c0.03-0.126,0.062-0.251,0.086-0.379c0.026-0.137,0.044-0.275,0.063-0.413
		c0.016-0.118,0.035-0.235,0.046-0.354c0.015-0.163,0.02-0.327,0.025-0.49C271.99,324.167,272,324.085,272,324
		c0-0.015-0.002-0.029-0.002-0.044c-0.001-0.187-0.014-0.374-0.028-0.561c-0.006-0.077-0.006-0.155-0.014-0.232
		c-0.026-0.247-0.064-0.492-0.112-0.736c-0.027-0.137-0.066-0.27-0.1-0.405c-0.032-0.124-0.058-0.25-0.096-0.372
		c-0.039-0.128-0.089-0.25-0.134-0.375c-0.043-0.119-0.082-0.24-0.131-0.357c-0.048-0.115-0.105-0.224-0.158-0.336
		c-0.058-0.123-0.112-0.247-0.177-0.367c-0.058-0.107-0.124-0.209-0.186-0.313c-0.071-0.118-0.137-0.238-0.214-0.353
		c-0.08-0.119-0.169-0.23-0.255-0.345c-0.07-0.093-0.134-0.188-0.208-0.279c-0.168-0.204-0.344-0.4-0.531-0.586l-39.991-39.991
		c-0.362-0.363-0.762-0.693-1.197-0.985c-0.01-0.006-0.018-0.014-0.028-0.021c-0.136-0.09-0.28-0.17-0.423-0.253
		c-0.09-0.052-0.177-0.109-0.268-0.158c-0.1-0.053-0.206-0.097-0.308-0.146c-0.14-0.067-0.28-0.136-0.424-0.195
		c-0.015-0.006-0.028-0.014-0.043-0.02c-0.092-0.037-0.186-0.062-0.278-0.095c-0.142-0.051-0.284-0.104-0.429-0.147
		c-0.135-0.04-0.272-0.07-0.408-0.102c-0.117-0.028-0.232-0.059-0.35-0.082c-0.161-0.031-0.322-0.051-0.482-0.072
		c-0.097-0.013-0.193-0.029-0.29-0.038c-0.176-0.016-0.352-0.022-0.527-0.026c-0.069-0.002-0.137-0.01-0.206-0.01h-0.137
		c-0.008,0-0.016,0-0.024,0h-87.683c-0.003,0-0.006,0-0.009,0H136c-0.073,0-0.146,0.009-0.219,0.011
		c-0.171,0.005-0.341,0.01-0.512,0.025c-0.101,0.009-0.201,0.026-0.302,0.039c-0.157,0.021-0.314,0.04-0.471,0.07
		c-0.121,0.023-0.239,0.055-0.359,0.084c-0.134,0.032-0.268,0.061-0.401,0.101c-0.146,0.043-0.288,0.096-0.431,0.148
		c-0.092,0.033-0.185,0.058-0.277,0.095c-0.015,0.006-0.028,0.014-0.043,0.02c-0.144,0.059-0.283,0.128-0.424,0.195
		c-0.103,0.049-0.209,0.093-0.308,0.146c-0.092,0.049-0.178,0.106-0.268,0.158c-0.142,0.083-0.287,0.163-0.423,0.253
		c-0.01,0.006-0.019,0.014-0.028,0.021c-0.435,0.292-0.835,0.622-1.197,0.985l-39.991,39.991c-0.187,0.186-0.364,0.382-0.531,0.586
		c-0.074,0.09-0.139,0.186-0.208,0.279c-0.086,0.114-0.175,0.226-0.255,0.345c-0.077,0.115-0.144,0.235-0.214,0.353
		c-0.062,0.104-0.129,0.206-0.186,0.313c-0.065,0.12-0.119,0.245-0.177,0.367c-0.053,0.112-0.11,0.221-0.158,0.336
		c-0.049,0.118-0.088,0.238-0.131,0.357c-0.045,0.125-0.095,0.247-0.134,0.375c-0.038,0.123-0.064,0.248-0.096,0.372
		c-0.034,0.135-0.073,0.268-0.1,0.405c-0.049,0.244-0.086,0.489-0.112,0.736c-0.008,0.076-0.008,0.155-0.014,0.232
		c-0.014,0.187-0.027,0.374-0.028,0.561c0,0.015-0.002,0.029-0.002,0.044C88,324.085,88.01,324.167,88.013,324.251z
		 M133.078,298.236L140.184,316h-24.87L133.078,298.236z M244.686,316h-24.87l7.106-17.764L244.686,316z M197.06,332l-17.059,53.618
		L162.941,332H197.06z M167.366,316l12.635-18.048L192.635,316H167.366z M213.851,332h31.453l-47.178,49.425L213.851,332z
		 M206.068,307.29L195.366,292h16.818L206.068,307.29z M153.932,307.291L147.816,292h16.821L153.932,307.291z M146.15,332
		l15.727,49.428L114.696,332H146.15z"/>
</g>
<g>
</g>
<g>
</g>
<g>
</g>
<g>
</g>
<g>
</g>
<g>
</g>
<g>
</g>
<g>
</g>
<g>
</g>
<g>
</g>
<g>
</g>
<g>
</g>
<g>
</g>
<g>
</g>
<g>
</g>
</svg>
